VAL gets naughty in this episode!  I laughed way too hard. ;o)

Enjoy!



Format                           : AVI
Format/Info                      : Audio Video Interleave
File size                        : 376 MiB
Duration                         : 45mn 12s
Overall bit rate                 : 1 164 Kbps
Writing application              : Lavf52.22.1

Video
ID                               : 0
Format                           : MPEG-4 Visual
Format profile                   : Simple@L1
Format settings, BVOP            : No
Format settings, QPel            : No
Format settings, GMC             : No warppoints
Format settings, Matrix          : Default (H.263)
Codec ID                         : XVID
Codec ID/Hint                    : XviD
Duration                         : 45mn 12s
Bit rate                         : 1 024 Kbps
Width                            : 704 pixels
Height                           : 396 pixels
Display aspect ratio             : 16:9
Frame rate                       : 23.976 fps
Resolution                       : 8 bits
Colorimetry                      : 4:2:0
Scan type                        : Progressive
Bits/(Pixel*Frame)               : 0.153
Stream size                      : 331 MiB (88%)
Writing library                  : Lavc52.0.0

Audio
ID                               : 1
Format                           : MPEG Audio
Format version                   : Version 1
Format profile                   : Layer 3
Codec ID                         : 55
Codec ID/Hint                    : MP3
Duration                         : 45mn 11s
Bit rate mode                    : Constant
Bit rate                         : 128 Kbps
Channel(s)                       : 2 channels
Sampling rate                    : 44.1 KHz
Stream size                      : 41.4 MiB (11%)
Alignment                        : Aligned on interleaves
Interleave, duration             : 26 ms (0.63 video frame)

